<?xml version="1.0" encoding="utf-8"?>
<!-- Generator: Adobe Illustrator 25.4.1, SVG Export Plug-In . SVG Version: 6.00 Build 0)  -->
<svg version="1.1" id="Layer_1" xmlns="http://www.w3.org/2000/svg" xmlns:xlink="http://www.w3.org/1999/xlink" x="0px" y="0px"
	 viewBox="0 0 2895.8 2418.1" style="enable-background:new 0 0 2895.8 2418.1;" xml:space="preserve">
<style type="text/css">
	.st0{opacity:0.95;fill:#E6F0FF;}
	.st1{fill:#4D7CFF;}
	.st2{fill:#FFFFFF;}
	.st3{fill:url(#SVGID_1_);}
	.st4{fill:url(#SVGID_00000114783559825616668210000015283787421190758785_);}
	.st5{fill:#E65353;}
	.st6{fill:#EEA987;}
	.st7{fill:#D98B52;}
	.st8{fill:#B84343;}
	.st9{fill:#C78D71;}
	.st10{fill:#EEA886;}
	.st11{fill:#16202E;}
	.st12{fill:#FAA146;}
	.st13{fill:#8E4F3A;}
	.st14{fill:#633029;}
	.st15{fill:#323657;}
	.st16{fill:#FCCCA2;}
	.st17{fill:#E55353;}
	.st18{fill:#A77860;}
	.st19{fill:#EBEEFF;}
	.st20{fill:#353A3D;}
	.st21{fill:#81807E;}
	.st22{fill:#2D3133;}
	.st23{fill:#DECBC4;}
	.st24{fill:#495055;}
	.st25{fill:#252E3B;}
	.st26{fill:#3C4145;}
	.st27{fill:#B3A5A0;}
	.st28{fill:#51565C;}
	.st29{fill:#F5E2D9;}
	.st30{fill:#AD9F99;}
	.st31{fill:#69737A;}
	.st32{fill:#181929;}
	.st33{fill:#22243B;}
	.st34{fill:#292C47;}
	.st35{fill:#CFBEB6;}
	.st36{fill:#3A3F47;}
	.st37{fill:#23263D;}
	.st38{fill:#D44040;}
	.st39{fill:#EDDAD3;}
	.st40{fill:#8F5C28;}
	.st41{opacity:0.95;}
	.st42{fill:#E6F0FF;}
</style>
<g id="Background">
</g>
<path class="st0" d="M1710.1,1162.8h-555.4c-43.9,0-79.4-35.6-79.4-79.4V528c0-43.9,35.6-79.4,79.4-79.4h555.4
	c43.9,0,79.4,35.6,79.4,79.4v555.4C1789.5,1127.2,1754,1162.8,1710.1,1162.8z"/>
<rect x="1267.1" y="1000.2" class="st1" width="330.7" height="16.3"/>
<rect x="1313.9" y="1051.6" class="st1" width="237" height="16.3"/>
<path class="st0" d="M2791,1843.7h-790.4c-51.7,0-93.6-41.9-93.6-93.6V789.8c0-51.7,41.9-93.6,93.6-93.6H2791
	c51.7,0,93.6,41.9,93.6,93.6v960.3C2884.6,1801.8,2842.7,1843.7,2791,1843.7z"/>
<g>
	<rect x="2350.3" y="1373.2" class="st1" width="77.5" height="14.4"/>
</g>
<g>
	<rect x="2055.9" y="1504.7" class="st1" width="451.2" height="27.8"/>
	<rect x="2055.9" y="1638.2" class="st1" width="364.8" height="27.8"/>
	<rect x="2055.9" y="1571.5" class="st1" width="213.9" height="27.8"/>
</g>
<g>
	<path class="st1" d="M2625.1,810.7v14h82.7v77.6h14v-91.6H2625.1z M2063.7,902.3h14v-77.6h82.7v-14h-96.7V902.3z M2707.8,1302.7
		v77.6h-82.7v14h96.7v-91.7H2707.8z M2077.7,1302.7h-14v91.7h96.7v-14h-82.7V1302.7z"/>
</g>
<g>
	<g>
		<path class="st1" d="M2678.1,1668.1c-45.6,0-82.7-37.1-82.7-82.7c0-45.6,37.1-82.7,82.7-82.7c45.6,0,82.7,37.1,82.7,82.7
			C2760.8,1631,2723.7,1668.1,2678.1,1668.1z M2678.1,1518.7c-36.8,0-66.7,29.9-66.7,66.7c0,36.8,29.9,66.7,66.7,66.7
			c36.8,0,66.7-29.9,66.7-66.7C2744.8,1548.6,2714.8,1518.7,2678.1,1518.7z"/>
	</g>
	<g>
		<polygon class="st1" points="2672.8,1617.9 2635.2,1580.4 2646.6,1569 2672.8,1595.3 2709.6,1558.5 2720.9,1569.8 		"/>
	</g>
</g>
<path class="st1" d="M2727.8,2312.9c0,34.7-600.7,62.8-1341.6,62.8c-741,0-1341.6-28.1-1341.6-62.8c0-34.7,600.7-62.8,1341.6-62.8
	C2127.1,2250.1,2727.8,2278.2,2727.8,2312.9z"/>
<rect x="1191.7" y="475.2" class="st0" width="481.4" height="413.1"/>
<g>
	<g>
		<path class="st1" d="M484.1,2129.8c40.1-28.2,87-224.6,89.8-341.6c1.4-59.9,19.2-84.9,34.8-106.9c14.9-21.1,27.8-39.2,20.3-81
			c-14.4-79.8,23.4-114.3,23.8-114.6l-4.4-5c-1.7,1.5-41,37-25.9,120.8c7,39-4.6,55.3-19.2,76c-15.4,21.7-34.5,48.7-36,110.6
			c-3,125.6-51,311.1-87,336.4L484.1,2129.8z"/>
	</g>
	<g>
		<path class="st1" d="M400.1,2072.5c-3.8-8.6-7.7-17.4-12.1-26.8c-22.9-48.3-43.2-56.3-76.8-69.5c-8.2-3.2-17.5-6.9-27.7-11.5
			c-48.1-21.6-38.8-53.5-30.6-81.6c1.1-3.9,2.3-7.9,3.3-11.7c4.2-16.5-3.9-24.8-16.2-37.4c-9.2-9.3-20.5-21-29.3-39.3
			c-9.6-20.1-4.7-30.9,1.1-36.4c12.2-11.6,40.4-9.4,67,5.1c8.3,4.5,15.1,11.6,22.3,19.2c16.9,17.7,38,39.8,91.4,40.1
			c30.4,0.1,47.1,4.3,55.7,14c9.8,11,7.9,27.5,5.4,50.3c-0.9,7.9-1.9,16.8-2.5,26.5c-3.6,57.6,30.4,99.2,30.7,99.6
			c20.3,24.2,45.4,74.4,34.6,105.3c-4.5,13-14.7,21.1-30.1,24.2c-6.2,1.2-11.8,1.8-16.9,1.8C431.8,2144.4,418.1,2113.4,400.1,2072.5
			z M275.5,1769.2c-23.7-13-49.2-15.6-59.2-6.1c-7.6,7.2-4,19.6,0.3,28.7c8.3,17.4,18.8,28.1,28.1,37.5
			c12.9,13.1,23.1,23.5,17.9,43.7c-1,4-2.2,7.9-3.4,12c-8.2,28-15.9,54.5,26.9,73.7c10.1,4.5,19.3,8.1,27.4,11.3
			c33.9,13.3,56.3,22.1,80.4,72.8c4.5,9.4,8.4,18.3,12.2,27c20.7,47,33.3,75.4,78.6,66.2c13-2.6,21.5-9.3,25.2-19.9
			c9.5-27.2-13.3-74.9-33.4-98.9c-1.5-1.8-36.1-43.9-32.3-104.3c0.6-9.8,1.6-18.8,2.5-26.8c2.4-21.1,4.1-36.3-3.8-45.1
			c-7.2-8-22.8-11.7-50.8-11.8c-56.2-0.3-78.3-23.5-96.2-42.1C289,1779.7,282.8,1773.2,275.5,1769.2L275.5,1769.2z"/>
	</g>
	<g>
		<path class="st1" d="M485.3,2182.7l6.6-0.3c-0.3-6.2-8.7-152.8-67.5-195.7c-64.6-47.1-84.9-97.7-94.6-131.6
			c-11.4-40-69.6-50.7-72.1-51.1l-1.2,6.5c0.6,0.1,56.5,10.4,66.8,46.4c10,34.9,30.9,86.9,97.1,135.2
			C476.9,2033,485.3,2181.2,485.3,2182.7z"/>
	</g>
	<g>
		<path class="st1" d="M474.1,2215.6c-13.9-6.9-13.3-34.6-12.6-76.6c1-53,2.3-125.7-25.5-192.5c-29.5-71-3.2-91.7,22.3-111.8
			c28.5-22.5,55.4-43.7,3.8-139.5c-23.7-44-31.3-73.8-23.7-93.7c7.5-19.7,28.4-27.3,50.6-35.4c38.3-14,81.7-29.9,76-110.9
			c-1.7-24.8,1.2-40.1,9.2-48.1c8.7-8.6,21.5-7.7,36.3-6.6c22.4,1.6,47.7,3.5,69.8-25.3c2.3-7.2,23.4-71.4,48.6-82.4
			c5.3-2.3,10.5-2.3,15.4,0.1l0,0c17.4,8.3,27.5,18.2,30.9,30.2c5.9,20.9-9.4,44.4-27.1,71.7c-27.8,42.8-59.4,91.4-26.6,149.2
			c43.2,76.4,20.4,103.1-11.2,140.1c-18.1,21.2-38.6,45.2-52.4,84.4c-11,31.5,7.8,61.6,26,90.6c22.8,36.5,46.5,74.2-3.3,106.9
			c-82.2,54.1-163.4,230.6-164.2,232.4l-0.3,0.7l-0.6,0.5c-15.1,11.9-26.2,17.5-34.5,17.5C478.5,2217.2,476.2,2216.7,474.1,2215.6z
			 M677,1960.5c44.3-29.1,24.4-61,1.3-97.8c-18.2-29-38.7-61.8-26.6-96.3c14.1-40.4,35.1-64.9,53.6-86.5
			c31-36.3,51.4-60.2,10.5-132.6c-34.7-61.3-0.6-113.8,26.9-156c16.8-25.9,31.4-48.3,26.3-66.3c-2.8-10.1-11.8-18.6-27.4-26l0,0
			c-3.2-1.5-6.4-1.5-9.9,0c-23.4,10.2-44.9,78.2-45.1,78.9l-0.2,0.6l-0.3,0.5c-24.3,32.1-52.9,30.1-75.9,28.4
			c-13.7-1-24.6-1.8-31.1,4.7c-6.4,6.4-8.8,20.4-7.3,42.9c5.9,86-41.9,103.5-80.4,117.6c-21.6,7.9-40.3,14.7-46.7,31.6
			c-6.8,18,0.6,46,23.3,88.2c54.3,100.7,23.9,124.7-5.5,147.9c-24.6,19.4-47.8,37.7-20.2,104c28.3,68.1,27,141.6,26,195.2
			c-0.7,36.6-1.2,65.5,8.9,70.6c5.9,2.9,17.2-2,33.6-14.8C517.3,2180.6,595,2014.4,677,1960.5z"/>
	</g>
	<path class="st1" d="M344.4,1446.1c41.8-14.3,33.1,66.3,50.8,126c17.7,59.7,196.7,26,121.5,175.4c-75.1,149.4,95,50,44.2,180.3
		c-50.8,130.4-4.4,269.8-59.7,234.3c-55.2-35.5-31-199.6-88.5-219.2c-57.5-19.5-66.8-42.3-9.9-95.3c56.9-53-149.1-105.7-98.2-212.8
		C355.4,1527.9,296,1462.7,344.4,1446.1z"/>
	<g>
		<path class="st2" d="M482,2153.7c5.3-22.3,50.2-218.7,8.3-242.5c-37-20.9-36-102.3-30.3-179.2c5.1-68-82.3-99.8-86-101.2l-2.2,6.2
			c0.9,0.3,86.3,31.4,81.6,94.4c-5.9,78.9-6.6,162.7,33.6,185.4c31.8,18,2.5,175.9-11.5,235.2L482,2153.7z"/>
	</g>
	<linearGradient id="SVGID_1_" gradientUnits="userSpaceOnUse" x1="406.8066" y1="2543.1919" x2="509.7087" y2="2099.6011">
		<stop  offset="0" style="stop-color:#C9C4C1"/>
		<stop  offset="1" style="stop-color:#FFF6DE"/>
	</linearGradient>
	<polygon class="st3" points="639.9,2083.7 580.1,2310.3 446.6,2310.3 386.9,2083.7 	"/>
	
		<linearGradient id="SVGID_00000022526330445606364600000005955919888450674318_" gradientUnits="userSpaceOnUse" x1="367.3796" y1="2197.0271" x2="620.3411" y2="2197.0271" gradientTransform="matrix(1 0 0 1 19.5338 0)">
		<stop  offset="0" style="stop-color:#C9C4C1"/>
		<stop  offset="1" style="stop-color:#FFF6DE"/>
	</linearGradient>
	<path style="fill:url(#SVGID_00000022526330445606364600000005955919888450674318_);" d="M639.9,2083.7c0,0-131.5,24.7-131.5,226.6
		h-61.7l-59.7-226.6H639.9z"/>
</g>
<path class="st0" d="M2319.2,656.6H1925c-36.1,0-65.3-29.2-65.3-65.3v-342c0-36.1,29.2-65.3,65.3-65.3h394.1
	c36.1,0,65.3,29.2,65.3,65.3v342C2384.5,627.4,2355.3,656.6,2319.2,656.6z"/>
<g>
	<rect x="2099.3" y="567.2" class="st1" width="41.6" height="7.7"/>
</g>
<g>
	<path class="st1" d="M2246.8,269.5v7.5h44.4v41.7h7.5v-49.2H2246.8z M1945.5,318.7h7.5v-41.7h44.4v-7.5h-51.9V318.7z M2291.2,533.6
		v41.7h-44.4v7.5h51.9v-49.2H2291.2z M1953,533.6h-7.5v49.2h51.9v-7.5H1953V533.6z"/>
</g>
<g>
	<rect x="1404.6" y="920.4" class="st1" width="55.6" height="10.3"/>
</g>
<g>
	<path class="st1" d="M1599,522.7v10.1h59.3v55.6h10.1v-65.7H1599z M1196.5,588.4h10.1v-55.6h59.3v-10.1h-69.3V588.4z M1658.3,875.5
		v55.7H1599v10.1h69.3v-65.7H1658.3z M1206.5,875.5h-10.1v65.7h69.3v-10.1h-59.3V875.5z"/>
</g>
<g>
	<g>
		<path class="st5" d="M2691.1,1244.9h-92.7c-6.1-44.4-13.6-95.1-13.6-95.1s-3.7,41.8-8.3,95.1h-371.1c-3.4-47.9-7.5-83.7-8.9-84.5
			c-2.1-1.1-15.4,41.4-26.4,84.5h-100.5c25.8-111.3,74-289.9,101.9-300.6c39.7-15.3,201.4-65.1,201.4-65.1h92.3
			c0,0,164,46.8,179.3,97.7C2656.5,1017.5,2683.3,1151.1,2691.1,1244.9z"/>
	</g>
	<g>
		<path class="st6" d="M2423.2,579.8c0,0,86.2,13.6,73.1,148.4c-13.1,134.8-89.2,123.8-94.3,123.7c-5.1-0.1-76.4,2.5-81.9-162.2
			C2320.1,689.7,2317.7,568,2423.2,579.8z"/>
	</g>
	<g>
		<path class="st6" d="M2463.5,812.2c0,0-2.4,55.5,3,67.5s-71.1,50.6-117.8,7.6c0,0,11.3-60.3,8.1-81.6
			C2353.7,784.2,2463.5,812.2,2463.5,812.2z"/>
	</g>
	<g>
		<path class="st6" d="M2497.6,690.2c0,0,9.4-10.1,12.9,0.1c3.5,10.2-14.6,55.8-13.5,57.9c0,0-1.7,4-4,1.8
			C2490.8,747.7,2497.6,690.2,2497.6,690.2z"/>
	</g>
	<g>
		<path class="st6" d="M2321.1,688.5c0,0-9.2-10.3-12.9-0.1c-3.7,10.1,13.6,56.1,12.3,58.1c0,0,1.6,4,4,1.9
			C2326.8,746.1,2321.1,688.5,2321.1,688.5z"/>
	</g>
	<g>
		<path class="st7" d="M2497.6,710.8l-12.3,16.5c0,0,0.3-36.2-1.6-41.8c-2-5.7-5-23-6.7-27.1c-1.7-4.1-74-24.4-137.9,5.9
			c0,0,2.8,26-3.3,28.3c-6.1,2.3-3.1,42.4-3.1,42.4l-10.1-11.4c0,0-15.5-103.7-11.7-114.6c3.8-10.8,16.1-75.8,147.2-37.2
			c0,0,40.9-8.7,49.1,19.6C2515.2,619.6,2497.6,710.8,2497.6,710.8z"/>
	</g>
	<g>
		<path class="st6" d="M2466.5,879.7c0,0,19.4,4.1-61.9,82.1c0,0-57.7-63.8-55.8-74.5C2350.6,876.6,2466.5,879.7,2466.5,879.7z"/>
	</g>
	<g>
		<polygon class="st8" points="2404.5,961.8 2426.8,999.8 2492.6,887.9 2464.1,868 		"/>
	</g>
	<g>
		<polygon class="st8" points="2404.5,961.8 2350.7,876 2320.1,895.7 2374.9,999.8 		"/>
	</g>
	<g>
		<path class="st8" d="M2387.8,1199.3c0.7,12.6,1,28.2,1,45.6h-3.1c0-17.3-0.3-32.8-1-45.4c-5-95.1,18-210.9,18.2-238l3,0.6
			C2405.8,989.2,2382.8,1104.6,2387.8,1199.3z"/>
	</g>
	<path class="st9" d="M2364.9,836c0,0,20.5,21.7,49.4,15.9c28.9-5.8,41.8-19,41.8-19s-11.4,28.6-44.9,31.3
		C2377.7,866.8,2364.9,836,2364.9,836z"/>
</g>
<g>
	<g>
		<g>
			<path class="st10" d="M1366.3,526.5c-0.1,0-0.1,0-0.2,0c-1.9-0.5-5-9.8-5.6-11.7c-0.1-0.5-0.4-1.4-0.9-2.7
				c-2.4-7.5-8.1-24.9-5.9-31.6c0.7-2.1,1.8-3.3,3.2-3.6c3.1-0.6,6.6,3.3,6.8,3.5l0.1,0.1l0,0.1c0.8,7.4,4.7,44.1,3,45.8
				C1366.7,526.4,1366.5,526.5,1366.3,526.5z M1357.6,477.5c-0.2,0-0.4,0-0.6,0.1c-1.2,0.2-2.1,1.3-2.7,3.2
				c-2.1,6.5,3.7,24.4,5.9,31.2c0.4,1.3,0.7,2.3,0.9,2.8c1.4,4.5,4,10.9,5.1,11.2c0,0,0.1,0,0.1,0c1.1-1.5-1.4-28.4-3.2-45.1
				C1362.6,480.2,1360,477.5,1357.6,477.5z"/>
		</g>
	</g>
	<g>
		<g>
			<path class="st11" d="M1430.3,380c0,0,47.4-5,64.5,40.8c17.1,45.8,33.2,60.8,35.2,84.9c8.1,97.3,53.6,75.3,40.8,131.4
				c-12.8,56.1-21.6,64.6-21.6,64.6l-108.7-21.3l-110.1,0.4c0,0,43.1-21.5,33.5-67.3c-9.6-45.8-33.5-120.9-20-172
				C1357.5,390.3,1402,383.9,1430.3,380z"/>
		</g>
	</g>
	<g>
		<g>
			<path class="st10" d="M1488.3,526.5c-0.2,0-0.4-0.1-0.6-0.2c-1.7-1.7,2.2-38.4,3-45.8l0-0.1l0.1-0.1c0.1-0.2,3.7-4.1,6.8-3.5
				c1.4,0.3,2.5,1.5,3.2,3.6c2.2,6.7-3.4,24.2-5.9,31.6c-0.4,1.3-0.7,2.2-0.9,2.7c-0.6,1.9-3.7,11.2-5.6,11.7
				C1488.4,526.5,1488.3,526.5,1488.3,526.5z M1491.4,480.7c-1.8,16.7-4.3,43.6-3.2,45.1c0,0,0.1,0,0.1,0c1.1-0.3,3.7-6.7,5.1-11.2
				c0.1-0.5,0.4-1.4,0.9-2.7c2.2-6.8,8-24.7,5.9-31.2c-0.6-1.9-1.5-2.9-2.7-3.2C1495,477,1491.9,480.1,1491.4,480.7z"/>
		</g>
	</g>
	<g>
		<g>
			<path class="st12" d="M1653.4,817.7h-67.7c-14-25.6-25.5-45.6-25.5-45.6s-9.1,16.7-16.2,45.6h-228c-3.5-18.1-3.7-35.4-3-47.7
				c0,0-12.2,22-26.3,47.7h-76.6c20.3-38.1,58.4-107.4,67.1-116.4c10.9-11.4,73.9-54.9,118.8-69.1c45-14.2,70.6-0.5,70.6-0.5
				s46.2,8.3,88.9,25.3C1572.3,663.6,1618.7,749.2,1653.4,817.7z"/>
		</g>
	</g>
	<g>
		<g>
			<path class="st13" d="M1436.6,406.8c0,0,62.8,9.1,53.6,101.8c-9.2,92.8-64.7,85.4-68.4,85.3c-3.7-0.1-55.6,1.9-60.1-111.2
				C1361.7,482.6,1359.6,399,1436.6,406.8z"/>
		</g>
	</g>
	<g>
		<g>
			<path class="st13" d="M1464.5,577.4c0,0-3.9,48.2,5.4,62.7c9.3,14.5-7.9,34.1-43.5,27.4c-35.5-6.7-33.5-26.8-33.5-26.8
				s9.9-29.8,7-53.6C1397.1,563.2,1464.5,577.4,1464.5,577.4z"/>
		</g>
	</g>
	<g>
		<g>
			<path class="st11" d="M1429.4,440.4c0,0,29.4,30.9,43,46.5c13.6,15.6,15.2,45.8,15.2,45.8s23-28.1,13.4-60.7
				c-9.6-32.7-32.3-96.2-89.9-76.7c-57.5,19.5-59.7,105.5-52.9,148.1C1358.2,543.3,1384,449.3,1429.4,440.4z"/>
		</g>
	</g>
	<g>
		<g>
			<path class="st13" d="M1486.6,635.9c0,0-43.6,110.4-70.1,129.5c0,0-34.8-112.6-32.4-129C1384.1,636.4,1436.6,615.8,1486.6,635.9z
				"/>
		</g>
	</g>
	<g>
		<path class="st11" d="M1394.5,609.2c0,0-77.7,69.1-57.5,112.2c17.2,36.8,78.2,14.2,68.1-24.3
			C1395,658.5,1394.5,609.2,1394.5,609.2z"/>
	</g>
	<g>
		<path class="st14" d="M1404.6,589.7c0,0,26.8,12.7,52.8-6c0,0-7.2,14.9-26.4,17.1C1411.9,602.9,1404.6,589.7,1404.6,589.7z"/>
	</g>
</g>
<g>
	<g>
		<path class="st15" d="M2094.1,334.4c0,0-25.8,97-31.1,118.8c-1.6,6.6-6.8,18-13.3,30.9c0,0.1-0.1,0.2-0.2,0.3
			c-1.4,2.8-2.1,5.4-2.4,7.9c-1,8.1,2.1,14.5-3.3,24l-1,4h-51c6-17.7,13.5-40.2,19.6-58.3c5.1-15.3,9.1-27.5,10.1-31
			c3.1-10.5,14.7-44.6,24.5-67.2c3.4-7.9,16.6-15.7,28.3-21.3C2084.8,337.7,2094.1,334.4,2094.1,334.4z"/>
	</g>
	<g>
		<path class="st16" d="M2059.9,195.9c0,0-16.3-105.2,70.8-103.2s85.9,53.9,84.4,105.5s-34.9,47.7,2.7,119.5
			c37.6,71.8-32.6,71.8-32.6,71.8l-54.5-74.9L2059.9,195.9z"/>
	</g>
	<g>
		<path class="st10" d="M2121.3,102.8c0,0-59,9.3-61.3,93.1c-2.3,83.8,15.9,101.7,67.5,84.2c51.6-17.5,67.9-105.2,69.1-118.7
			C2197.7,147.8,2200.8,92.7,2121.3,102.8z"/>
	</g>
	<g>
		<path class="st17" d="M2224.8,394.3c0.2,28.8-32.9,97.8-38.1,119.1c-0.6,2.5-1.3,4.8-1.9,6.9h-161c-0.8-9.9-1.6-18.4-2-23.2
			c-1.3-15.8-17.2-49.7-16.7-65.5c0.6-16.1,8.5-30,19.5-47.2c3.4-5.3,7-10.7,10.6-16c11.7-17.2,23.4-32.8,29.2-38.2
			c4.3-4,8.3-7,11.7-9.4c0,0,0,0,0,0c7.2-4.8,12.1-6.4,12.1-6.4l50.7-8.1c0,0,31.6,11.4,49.8,15.7
			C2188.8,322.1,2224.3,327.3,2224.8,394.3z"/>
	</g>
	<g>
		<path class="st17" d="M2076.3,320.9l-29.4,46.3l-27.1,42.7c0.1-0.2,1.9-6.7,4.9-25.4c0.6-3.6,1.2-7.6,1.9-12
			c0.2-1.3,0.5-2.6,0.9-3.9c0,0,0,0,0,0C2039,341.7,2074.9,321.6,2076.3,320.9C2076.3,320.9,2076.3,320.9,2076.3,320.9z"/>
	</g>
	<g>
		<path class="st10" d="M2160.6,242.4c-5.1,9.7-10.5,69.6-10.5,69.6s-72.1,27.3-64.8,11.8c3.3-7,4.3-16.1,4.4-23.9
			c0.1-6.2-0.4-11.6-0.8-14.6c-0.2-1.6-0.3-2.5-0.3-2.5S2165.8,232.7,2160.6,242.4z"/>
	</g>
	<g>
		<path class="st16" d="M2097.2,162.9c0,0,30.3,49.3,57.8,68.7c27.5,19.4,13.6,34.9,13.6,34.9s71.9-151.3,3.5-161.8
			c-68.3-10.5-110.2-11.3-112.2,91.2C2059.9,195.9,2091,162.2,2097.2,162.9z"/>
	</g>
	<g>
		<path class="st18" d="M2130.1,279.1c-11.1,16.3-40.3,20.7-40.3,20.7s0,0,0,0c0.1-6.2-0.4-11.6-0.8-14.6
			C2107.8,288.9,2130.1,279.1,2130.1,279.1z"/>
	</g>
	<path class="st19" d="M2027.6,368.2L2027.6,368.2c0,0-1.6,3.2-2.9,16.3l10.6-16c0,0,19-27.2,25.5-34.3c6.5-7.1,15.4-13.3,15.4-13.3
		S2038.9,338.8,2027.6,368.2z"/>
	<path class="st17" d="M2171.1,408.7c0,0,46.3-18.2,60-19.2c0,0-9.3-74.3-54.8-66.5C2130.8,330.9,2171.1,408.7,2171.1,408.7z"/>
	<path class="st10" d="M2088.4,314.5c0,0-34,52.3-22.5,56.8c11.5,4.6,73.8-6.1,100.3-55.7C2166.1,315.6,2126.5,295.3,2088.4,314.5z"
		/>
	<path class="st15" d="M2231.1,389.5c-2.4,41-14,79.9-23.6,115.5c-1.4,5.2-2.7,10.3-4,15.3h-94.3c-0.2-14.1-0.2-26.6,0.3-37
		c4.7-113.7,40.8-173.6,40.8-173.6s11.5,3.9,44.6,13.3c22.7,6.4,31.3,35.3,34.4,52.8c0,0,0,0.1,0,0.2
		C2230.8,384,2231.1,389.5,2231.1,389.5z"/>
	<path class="st15" d="M2088.3,314.5c-0.4,0.6-6.6,11.1-14,28.1c-11.2,25.6-25.1,66.1-26.3,110.8c-0.4,14.3-3.2,37.6-7.6,66.9h-18.8
		c-1.9-24.6-6.4-44.2-10.4-58.3c-2.6-9.2-4.9-16-6.2-20.3c-6-20.4,13.2-47.6,19.6-57.3C2031.1,374.8,2046.5,330.1,2088.3,314.5z"/>
	<path class="st15" d="M2261.1,520.4h-50.6c0-3.3-1.1-8.7-3-15.3c-9.2-32.7-36.4-96.3-36.4-96.3s-40.7-66.6-2.1-83.5
		c38.6-17,55.2,30.4,60.4,50.7c0,0,0,0.1,0,0.2C2230.7,380.9,2253.7,468.6,2261.1,520.4z"/>
</g>
<g>
	<g>
		<path class="st10" d="M1435.6,1469.3c0,0,17.7-0.2,24-7.1c6.3-6.8,17.4-12.9,21-14.7c4.8-2.3,18-15.2,19.6-8.9
			c1.7,6.3-21,22.2-25.3,26.5c-4.3,4.3,18.8,6.2,22.2,10.3c3.4,4.2-8.4,48-23.8,44.6c-15.4-3.4-28.1-18.9-31-18.9
			c-2.9,0-11.4-1.9-11.4-1.9L1435.6,1469.3z"/>
	</g>
	<g>
		<path class="st10" d="M1493.8,1473.7c0,0,46,14.1,47.9,18c1.9,4,0.6,6.9-3.8,5.8c-4.4-1.1-45.1-12.1-45.1-12.1
			s50.3,27.5,52.6,30.3c1.3,1.6-0.9,7.4-3.3,7c-2.4-0.3-54.2-24.1-54.2-24.1s46.9,25.8,48.1,28.9c1,2.7-2.1,7.6-5.8,6
			c-3.6-1.6-48.9-22.5-48.9-22.5s32.7,21.4,32.2,24.9c-0.3,2.2-2,7.2-10.3,1.3c-8.2-5.9-29.3-17.1-29.3-17.1L1493.8,1473.7z"/>
	</g>
	<g>
		<path class="st20" d="M1338.7,2246.1c0,0,14.8,22.1,35.5,26.9c20.7,4.8,41.1,12.4,41.3,25.4c0.2,13.1-59.9,20.9-83.6,7.7
			c-35.4-19.7-39-13.7-42.9-23.6c-3.9-9.8,4.7-36.1,4.5-39.3C1293.1,2239.4,1338.7,2246.1,1338.7,2246.1z"/>
	</g>
	<g>
		<path class="st21" d="M1336.4,2235.2c0,0,2.7,10.7,2.3,10.9c-0.4,0.2-46.7,5.7-45.3-2.8c1.1-6.9,2.8-14.5,2.8-14.5L1336.4,2235.2z
			"/>
	</g>
	<g>
		<path class="st20" d="M1048.1,2244.6c0,0,10.5,21.1,28.5,28.3c19.2,7.7,34.7,16.5,34.3,29.3c-0.4,12.7-47,25.6-81,1.2
			c-21.5-15.4-28.3-15.5-31.7-25.3c-3.4-9.7,6-35,5.9-38.1C1003.9,2236.3,1048.1,2244.6,1048.1,2244.6z"/>
	</g>
	<g>
		<path class="st21" d="M1048.6,2233.6c0,0-0.1,10.8-0.5,11c-0.4,0.2-45.1,3.9-44-4.5c0.9-6.7,4.3-14.7,4.3-14.7L1048.6,2233.6z"/>
	</g>
	<g>
		<path class="st22" d="M1212.6,1587.9c0,0,58.8,225.1,81.1,277.2c20.7,48.2,27.6,115.7,30.4,149.5c3.6,42.6,25,208.5,27.5,220.9
			c2.5,12.5-69.1,6.9-69.1,6.9s-49.4-286.8-69.9-328.7c-13.7-27.9-93.1-228.2-102.2-216.7c-9.1,11.5-20.4,212.2-27.1,245.6
			c-6.7,33.3-27.4,296.6-27.4,296.6s-46.2,6.8-58.5-3.6c0,0-5.6-224.8-1.3-287.3c1.6-23.8-27.9-285.4,10-390.8
			C1026.1,1501.8,1212.6,1587.9,1212.6,1587.9z"/>
	</g>
	<g>
		<path class="st23" d="M885.3,1426.4c0,2.6,4.9,12.9,12.6,27.7c11.3-22.7,20.3-41.3,23.2-48.2c9.6-22.6,58.8-74.4,58.8-74.4
			s0,0,0,0.1c0,0,0,0,0,0.1c0,0,0,0,0,0.1c0,0.1,0,0.1,0.1,0.2c0,0.1,0.1,0.3,0.1,0.4c0,0.1,0.1,0.2,0.1,0.3c0,0.1,0,0.1,0.1,0.2
			c2.7,10,19.2,72.5,19.8,103.3c0.7,33.5,9.4,95.5,9.4,95.5l0,0l10.3,1.4l22.8,3.2l2.7,0.4l6.6,0.9l60.4,8.5l21.4,3l2.9,0.4
			l12.2,1.7l33.8,4.8l8.6,1.2l0.1,0l6.5,0.9l8.9,1.3c0,0,0,0,0,0c0.2-0.3,8.7-11.9,7.4-37.5c-0.8-16.6-2.8-47.7-2-76.6
			c0-0.2,0-0.3,0-0.4c0-0.4,0-0.7,0-1.1c0-0.1,0-0.2,0-0.4v-0.1c0.5-15.9,1.9-30.9,4.9-42.3c2-7.7,3.3-15.4,4.2-22.6
			c0-0.4,0.1-0.7,0.1-1c0.2-1.3,0.3-2.7,0.4-3.9c1.9-20,0.4-35.3,0.3-36.2l0,0.1c0.6,1.3,5,17.5,10.8,37.4
			c9.8,33.7,23.4,78.2,29.3,80.4c8.5,3.1,145.6,43.7,175.3,47.9c3.4,0.5,5.4,0.5,5.6-0.1c0.1-0.4,0.3-0.9,0.4-1.3
			c3.6-11.9,8.5-32,9.3-35.3c0.1-0.3,0.1-0.5,0.1-0.5l-5.3-1.6l-149.3-44.7l-68.2-196.8c-1.4-1.1-18.2-9.3-30.4-15.1
			c-12.5-5.9-27.5-14.7-41.2-22.1c-6.9-3.8-13.5-7.3-19.2-9.9l-0.9-0.4l0,0c-9.4-4.3-15.6-7.1-15.6-7.1s0,0,0,0
			c-0.2,0-1.7-0.2-4.1-0.4c-13.1-1.2-53.8-5.1-67.5-5.9c-1.1-0.1-2.1-0.1-2.8-0.1c-0.6,0-1.1,0-1.4,0c-1.7,0.1-10.1,3-21.2,7.2h0
			c-0.4,0.2-0.8,0.3-1.3,0.5c-0.5,0.2-1,0.4-1.6,0.6c-1,0.4-1.9,0.7-2.9,1.1c-2,0.8-4,1.6-6.1,2.4c-0.7,0.3-1.4,0.6-2.2,0.9
			c-22.1,8.8-47.4,19.6-53.4,23.9c-4,2.8-16.3,26.2-30.7,55c-18.5,59.2-41.9,149.7-42.6,172.1
			C885.3,1425.8,885.3,1426.1,885.3,1426.4z"/>
	</g>
	<g>
		<path class="st24" d="M1206.8,1559.4c0,0,4.5,5.4,5.9,28.4c0,0-186.8-21.8-206.5-30.4c0,0-0.8-25.4,3.4-25.8
			C1014.1,1531.2,1206.8,1559.4,1206.8,1559.4z"/>
	</g>
	<g>
		<path class="st10" d="M1047.5,1155.5c0.6,29.3,57.3,45.4,57.3,45.4s23.7-29.8,18.1-32.6c-2.2-1.1-3.1-5.6-3.4-10.5
			c-0.3-4.7,0-10,0.3-13.3c0.2-2.1,0.3-3.4,0.3-3.4s-8.1-8.6-18.4-18.8c-18-17.8-42.8-40.7-42.9-31.6c0,0.5,0.1,1.1,0.2,1.7
			C1063.4,1112.8,1047.5,1155.5,1047.5,1155.5z"/>
	</g>
	<g>
		<path class="st20" d="M1052.2,1536.2c0,0-4.1,25.7-4.4,32.4l-8.6-1.7c0,0,2.4-27.2,3.8-31.8L1052.2,1536.2z"/>
	</g>
	<g>
		<path class="st20" d="M1191.2,1556.4c0,0,3.3,23.4,3.4,32.2l-9.1-1.2c0,0-1.9-29.2-2.9-32.2L1191.2,1556.4z"/>
	</g>
	<g>
		<path class="st18" d="M1069.3,1112.5C1069.3,1112.5,1069.3,1112.5,1069.3,1112.5c0.1,0.2,2.5,3.8,6.6,8.9
			c8.7,11,25.1,29,43.5,36.2c-0.3-4.7,0-10,0.3-13.3c1.9,0,3.8-0.3,5.6-0.7c-5-8.8-12.3-18.1-12.3-18.1l-11.4-3.4L1069.3,1112.5z"/>
	</g>
	<g>
		<path class="st10" d="M1058.4,1091c4.9,10.7,9.6,18.4,10.9,21.5c0,0,0,0,0,0c0.9,2,3.2,5.3,6.6,8.9c9.4,10.1,26.7,23.4,43.8,22.9
			c1.9,0,3.8-0.3,5.6-0.7c6.9-1.5,15.1-4.7,19.5-13.5c35.4-69.3,9.8-126,9.8-126s-96.8-27.4-112,1.8
			C1032.2,1026.4,1046.9,1065.9,1058.4,1091z"/>
	</g>
	<g>
		<path class="st25" d="M1154.8,1004.2c0,0,9-0.5,11.2-17.5c2.2-16.8-2.2-21.5-2.2-21.5s-40-16.7-54.3-18.9
			c-14.4-2.2-49.7-4.3-57.9,5.2c0,0-20.1-4.7-25.6,28.7c-8.7,52.9,29.6,104.3,29.6,104.3s-0.3-34.6,7.3-39.2
			c7.6-4.6,14.2,6.3,14.2,6.3l15.6,2.8c0,0-23.7-51.2,4.7-53.1C1125.8,999.4,1138.5,1007.1,1154.8,1004.2z"/>
	</g>
	<g>
		<path class="st10" d="M1076.6,1037.8c-1.5-15.2-29-21.1-27.2-5.1c1.8,16,15.4,31.3,21.7,30.8
			C1077.3,1062.9,1077.7,1049.4,1076.6,1037.8z"/>
	</g>
	<g>
		<path class="st26" d="M898,1454.1c12,22.9,30.9,56.6,49.6,89.3c-2.5,4.6-4.9,9.2-7.2,13.7c-5.6,11-10.6,21.7-14.2,31.6
			c-4.3,11.9-10.2,42.5,1.2,48.2l59.8,33c0,0,0.4-1.2,1.2-3.3c2-5.4,6.3-16.8,12.2-31.7c0.2-0.5,0.8-1.9,1.7-4
			c1.2-2.8,2.9-6.8,4.9-11.4c0.9-2,1.8-4.2,2.8-6.4c1.1-2.5,2.2-5.1,3.3-7.7c1.6-3.8,3.2-7.6,4.7-11c4.1-9.5,7.3-16.9,7.3-16.9
			c0.2-0.4,0.4-0.9,0.6-1.3c1.9-4.2,3.9-8.4,6-12.6c3.1-6.5,6.4-13,9.7-19.3c0.3-0.6,0.7-1.3,1-1.9c0.6-1.1,1.2-2.2,1.8-3.3
			c0.4-0.7,0.7-1.4,1.1-2c0.1-0.2,0.2-0.3,0.2-0.5c0.2-0.3,0.3-0.5,0.4-0.8c17.3-31.5,36.7-57.9,42.9-96.5c0.6-3.7,1.2-7.4,1.7-11.1
			c0.9-6.1,1.7-12.2,2.5-18.1c0.3-2.2,0.6-4.5,0.8-6.7c3.1-25.8,5-48.7,6.5-64.7c4.7-49.8-25.9-103.8-49.3-137.2
			c-12.5-17.8-23-29.8-25.1-32c-0.1,0-0.1-0.1-0.1-0.1c-0.4,0.2-0.8,0.3-1.3,0.5c-0.5,0.2-1,0.4-1.6,0.6c-1,0.4-1.9,0.7-2.9,1.1
			c-2,0.8-4,1.6-6.1,2.4c-0.7,0.3-1.4,0.6-2.2,0.9c-22.7,8.9-70.5,22-76.5,26.4c-3.5,2.5-11.2,25.2-20.2,54
			c-18.5,59.2-29.4,148.4-30,170.7c0,0.4,0,0.7,0,1C885.3,1429,890.2,1439.3,898,1454.1z M988.7,1443c0,11.1-3.6,23.8-9.2,37.4
			c-0.1,0.3-0.3,0.7-0.4,1c-3.8-8.2-7.4-16-10.7-23.3c0,0,0,0,0,0c-8.9-19.9-15-35.4-15.3-41.6c-2.2-39.5,26.9-84.9,26.9-84.9
			c0,0,0,0,0,0.1c0,0,0,0,0,0.1c0,0.1,0,0.1,0.1,0.2c0,0.1,0.1,0.3,0.1,0.4c0,0.1,0.1,0.2,0.1,0.3c0,0.1,0,0.1,0.1,0.2
			C986.3,1356.4,988.7,1443,988.7,1443z"/>
	</g>
	<path class="st27" d="M1102.2,1591.7l-170.3,75.8c-9.6,4.3-20.9,0-25.2-9.7l-46.6-104.8c-4.3-9.6,0-20.9,9.7-25.2l170.3-75.8
		c9.6-4.3,20.9,0,25.2,9.7l46.6,104.8C1116.2,1576.1,1111.9,1587.4,1102.2,1591.7z"/>
	<g>
		<path class="st26" d="M1139,1176.1c0,0,8,26.6,18.3,93c0,0,0,0,0,0c0.4,2.2,0.7,4.5,1.1,6.8c0,0.3,0.1,0.5,0.1,0.8
			c0.2,1.5,0.5,3.1,0.7,4.7c0,0.2,0.1,0.4,0.1,0.6c0.2,1.1,0.3,2.1,0.5,3.2c0.4,2.6,0.8,5.3,1.2,8c4.6,32.3,11.1,87.3,17.3,142.8v0
			c4.9,43.8,16.1,88.6,19.7,122.2c0,0,0,0,0,0.1c0.7,6.6,2.4,15.3,4.7,25.2c0.3,1.1,0.5,2.2,0.8,3.4c10,42.3,29.4,102.2,29.4,102.2
			l5.7-5.2l16.8-15.5c3.9-3.6,5.3-9,3.8-14c-9.3-30-40.9-136.1-46.7-210.8c0,0,0,0,0-0.1c2.8-26.2,10.1-61.4,9-66.5
			c0.1,0.2,0.1,0.4,0.2,0.5c3.3,9.3,7,19.3,10.7,29.1v0c10,26.3,20.2,50.7,24.4,52.2c9.5,3.5,179.3,53.6,180.5,46.6
			c0.1-0.7,0.3-1.5,0.4-2.2c0.2-0.8,0.3-1.6,0.5-2.5c2.1-9.6,5.9-23.3,8.6-32.6c0.4-1.4,0.8-2.6,1.1-3.8c1.1-3.8,1.8-6.3,1.8-6.3
			l-143.6-47.1l-72.5-189.5c-1.4-1.1-19.9-11.1-32.2-16.9c-12.7-6.1-28.9-13.6-43.2-20.2c-6.8-3.2-13.3-6.1-18.7-8.6L1139,1176.1z"
			/>
	</g>
	<g>
		<path class="st28" d="M1041.7,1241.8l27.6,15.6l-11.8,12L1089,1439c6.4-39.8,9.3-77.5,11.5-100.7c7.2-77.1-69.7-164-74.5-169.3
			c-3.7,1.4-7.7,2.9-11.8,4.6L1041.7,1241.8z"/>
	</g>
	<g>
		<path class="st28" d="M1138.5,1175.3c0,0,10.3,33.7,22.3,117.8c4.6,32.3,11.1,87.3,17.3,142.8l6.4-158.8l-13.2-14.3l11.7-14.6
			l-25-63.9c-6.8-3.2-13.3-6.1-18.7-8.6L1138.5,1175.3z"/>
	</g>
	<g>
		<path class="st29" d="M1024.4,1169.6l23.1-14.2c0,0,0.6,12.6,57.3,45.4l-16.1,45.4L1024.4,1169.6z"/>
	</g>
	<g>
		<path class="st29" d="M1119.9,1161.8c0,0-0.9,13.6-15.1,39l31.4,41l2.3-66.4L1119.9,1161.8z"/>
	</g>
	<g>
		<path class="st12" d="M1104.7,1200.8c0,0-6.1,24.4-3.9,31.2c0,0,13.4,4.9,23-1.2C1123.9,1230.8,1117,1213.7,1104.7,1200.8z"/>
	</g>
	<g>
		<g>
			<path class="st30" d="M1136.2,1552.1c3.4-17.2,0.2-68.7,0-70.9l-2.9,0.2c0,0.5,3.4,53.3,0,70.1L1136.2,1552.1z"/>
		</g>
	</g>
	<g>
		<path class="st31" d="M1112.4,1544.2c0,0,27.5,3.3,36.6,5.5l-1.2,30.8l-36-3.8L1112.4,1544.2z"/>
	</g>
	<g>
		<path class="st12" d="M1118.4,1228.6c0,0,30.7,77.4,25.7,164.1c-5.2,89.8-13.7,122.4-13.7,122.4l-18.9,23.7l-8.3-29.1
			c0,0,25.4-114.5,9-226c-3-20.2-7.4-58.5-7.4-58.5L1118.4,1228.6z"/>
	</g>
	<g>
		<path class="st10" d="M1026.3,1594.2c0,0,6.6,13.2,13.2,15.3c6.6,2.2,16.2,12.9,16.2,12.9l-46.3,24.4c0,0-12.3-24.1-12.9-39.5
			C995.9,1592,1026.3,1594.2,1026.3,1594.2z"/>
	</g>
	<g>
		<path class="st23" d="M1030.7,1595.4l3.1,6.2c0,0-29.4,21.5-37.3,22.9l-2.7-8.2L1030.7,1595.4z"/>
	</g>
	<g>
		<path class="st26" d="M1033.7,1595.7c0,0-22,18.2-40.6,26.6l-83.2-145.9l53.1-29C963,1447.3,1032.3,1584.7,1033.7,1595.7z"/>
	</g>
	<g>
		<path class="st22" d="M1220.4,1337.6c1,20.8,0.9,39.2,0.9,39.2s0,0,0,0c0,0.1,0,0.7,0.1,1.6c0-0.4,0.1-0.7,0.1-1
			c3.3,9.3,7,19.3,10.7,29.1c0.9-11.3,1.1-21.9,0.8-31.7c-1.5-58.3-19.8-88.9-19.8-88.9C1217.4,1296.1,1219.4,1317.9,1220.4,1337.6z
			"/>
	</g>
</g>
<g>
	<g>
		<path class="st10" d="M1943.5,1145.5c0,0-0.9-10.7,0.4-15.7c2.2-8.6-1-22.6,9.8-29.4c10.9-6.8,42.1,21.6,44.5,29.6
			c2.5,7.9-9.2,21.5-33.6,32.8C1940.2,1174.1,1943.5,1145.5,1943.5,1145.5z"/>
	</g>
	<g>
		<path class="st10" d="M1950.4,1103.2c0,0,10.5-15.9,24.5-32.1c12.2-14.2,29.3-30.2,33-27.1c5.5,4.6-10.1,16.1-21.2,31
			c-10.3,13.7-5.9,12.8-5.9,12.8s-1.3,0.2,12.9-12.6c15.2-13.7,32.1-27.8,35.1-25.4c3.7,3,3.9,3.7-0.7,9.6c3.4-2.8,4.7-2.3,6-0.9
			c6.8,6.9-12.3,30.5-19.9,39.9c5.9-7.2,11-11.8,12.4-4.9c1.7,7.9-26.9,40.1-36,52.7C1980.5,1159.7,1950.4,1103.2,1950.4,1103.2z"/>
	</g>
	<g>
		<g>
			<g>
				<g>
					<path class="st32" d="M1585.2,2242.1c0,0,29.7,17.6,43.2,24.1c13.4,6.5,65.7,8.4,70.9,13.3c5.2,4.9,3.3,20.5-5.4,22.1
						s-72.2,7.3-93.4,2.4c-21.2-5-60.8,3.4-69.6,0.4c-8.8-3-3.1-50.3,0.3-60.9C1534.6,2232.8,1585.2,2242.1,1585.2,2242.1z"/>
				</g>
			</g>
		</g>
	</g>
	<g>
		<g>
			<g>
				<g>
					<path class="st33" d="M1587.7,2222.7l-2.5,19.3c0,0-39.7,7.4-51.7,1.3l3-20.1L1587.7,2222.7z"/>
				</g>
			</g>
		</g>
	</g>
	<g>
		<path class="st34" d="M1747,1561.8c-0.4,13.4-2.9,42.5-5.7,73c-0.6,6.8-1.3,13.6-2,20.4c-4,41.1-8,79.1-8,79.1
			c-5,32.7-15.4,89.5-26.9,132.4v0c-3.3,12.4-6.8,23.6-10.2,32.8c-3.4,8.9-6.7,15.9-10,20.1c-24.6,31.4-81,310.2-81,310.2l-77-0.6
			c0,0,16.9-188.7,34-236.6c19-53.4,52-125.4,43.8-177c-5.1-32.3-11.7-135.3-11.7-135.3s-6.4-115.7,23.8-200.4
			C1623.6,1458.8,1747,1561.8,1747,1561.8z"/>
	</g>
	<g>
		<g>
			<g>
				<g>
					<path class="st32" d="M1801.7,2249.3c0,0,29.5,17.9,42.9,24.6c13.4,6.7,65.6,9.2,70.7,14.2c5.1,5,3,20.6-5.7,22.1
						c-8.7,1.5-72.3,6.5-93.4,1.3c-21.1-5.2-60.9,2.7-69.6-0.4c-8.7-3.1-2.5-50.3,1-60.9C1751.1,2239.5,1801.7,2249.3,1801.7,2249.3
						z"/>
				</g>
			</g>
		</g>
	</g>
	<g>
		<g>
			<g>
				<g>
					<path class="st33" d="M1804.4,2230l-2.7,19.3c0,0-39.8,6.9-51.8,0.7l3.2-20.1L1804.4,2230z"/>
				</g>
			</g>
		</g>
	</g>
	<g>
		<path class="st34" d="M1712.3,1953.6c-2-61.6-7.4-102.6-23.3-138.2c-13.3-29.9-24.7-123.8-24.7-123.8s-36.1-110.1-28.8-199.7
			c1.8-22.4,141.4,33.9,141.4,33.9c3.1,13.1,12.4,54.1,15.7,84.6c18.9,174.1,11.8,287.5,11.8,287.5
			c-10.8,38.4,16.5,340.9,16.5,340.9h-78.5c0,0-20.6-107.6-22.8-174.5C1719.6,2064.3,1711.5,1964.3,1712.3,1953.6z"/>
	</g>
	<g>
		<g>
			<path class="st35" d="M1710.6,1155.9c0,0,36.6,60,47.3,93.5c10.7,33.5,2.1,130.8,4,150.4c5.9,60.7,14.4,127.5,14.4,127.5
				l-122.7,78.4c0,0-22-51.4-41.2-115.5c-19.2-64-20.7-121.7-20.6-160.2c0.6-120.8,65.9-189.1,65.9-189.1L1710.6,1155.9z"/>
		</g>
	</g>
	<g>
		<g>
			<path class="st10" d="M1755.7,995c0,0,25.2,26.9,18,34c-5.9,5.8,17.3,32.7,20.5,37.2c3.3,4.5-10.3,12-12.5,16
				s-0.9,46.3-12.6,50.6c-11.6,4.3-70.4-0.2-89.1-11.7c-18.7-11.4-48.8-77.1-46.6-108.8C1635.6,980.8,1711.4,948.1,1755.7,995z"/>
		</g>
	</g>
	<g>
		<g>
			<path class="st10" d="M1731.9,1123.7c0,0-0.4,3.6-1,9.1c-0.2,2.3-0.5,5-0.8,7.9c-0.1,1.7-0.3,3.6-0.5,5.4c0,0.5-0.1,1-0.1,1.5
				c-0.1,0.9-0.1,1.7-0.2,2.6c-0.3,4.1-0.6,8.3-0.8,12.4c-0.5,10.7-0.6,21,0.5,26.7c3.1,15.6-64.3-50.4-64.3-50.4
				s5.7-51.2,2.9-108.7C1664.9,972.7,1731.9,1123.7,1731.9,1123.7z"/>
		</g>
	</g>
	<g>
		<g>
			<path class="st36" d="M1760.8,1000.9c0,0,11.9-28.1-24.8-47.6c-43.2-22.9-89,34.7-95.1,38.1c-6.1,3.4-33.7,34.5-6.7,75.7
				c34.1,52,32.3,50.3,32.3,50.3s3.4-38.4,3.2-45.8c-0.4-13.5,35.1-15.1,35.1-15.1s-14.6-19.4,1.6-28.1
				C1722.7,1019.7,1741.6,999,1760.8,1000.9z"/>
		</g>
	</g>
	<g>
		<g>
			<path class="st10" d="M1686.2,1051.6c-2.6-3.6-12.1-19.7-24.3-5.6c-12.2,14.1,20.5,40.4,23.2,40.1
				C1687.9,1085.8,1707.9,1082.1,1686.2,1051.6z"/>
		</g>
	</g>
	<g>
		<path class="st37" d="M1782.9,1553.1c0,0-6.1-28.7-7.3-33l-179.4,29.9l1.8,23.2C1598.1,1573.2,1727.3,1565.5,1782.9,1553.1z"/>
	</g>
	<g>
		<path class="st12" d="M1580.3,1426.7c0,0,27.6,119-15.6,257.9c-5.3,17,119.5-2.6,119.5-2.6L1580.3,1426.7z"/>
	</g>
	<g>
		<g>
			<path class="st12" d="M1738.7,1673.2c0,0-88.6,19.4-113.5,10.7c0,0-36.2-131.7-48.8-265.5c-1-10.3-1.8-20.7-2.5-31c0,0,0,0,0,0
				c-7-108.8,20.6-219.1,83.7-246.6c1.8,1.2,90.6,79.5,88.9,151.2c-0.1,4.9-0.2,9.7-0.2,14.6c-0.1,8.8,0,17.7,0.2,26.5l0,0
				c0.6,27.3,2.3,54.5,4.7,80.9c0.2,2.8,0.5,5.5,0.8,8.2c0.4,4.4,0.9,8.8,1.4,13.2c0.6,5.8,1.3,11.6,2,17.4
				C1769.7,1572.6,1738.7,1673.2,1738.7,1673.2z"/>
		</g>
	</g>
	<g>
		<path class="st38" d="M1735.1,1208.3c0,0,16.7,66.1,23.1,149.2c5.3,69.6,12.4,118.8,12.4,118.8l10.7,34.4l4.4-33.2
			c0,0-3.9-89.8-9.1-126.3c-5.3-36.8-7.5-83.6-37-144.2L1735.1,1208.3z"/>
	</g>
	<g>
		<path class="st38" d="M1733.2,1208.4c0,0,2,1.9,4.9,2.4c2.8,0.4,6.9-4.1-7.6-23.3L1733.2,1208.4z"/>
	</g>
	<g>
		<g>
			<path class="st39" d="M1665.5,1130.9c0,0,41.3,38.9,65.8,47.4l4.7,37.2l-78.4-74.7L1665.5,1130.9z"/>
		</g>
	</g>
	<g>
		<path class="st12" d="M1693.2,1281.4c-16.3-5.8-83.9-38.6-65.9-76.9c18-38.3,64.3-17.9,99.2-2.3c36.5,16.3,122.7,66.4,129.5,61.7
			c6.8-4.7,36.6-47.3,42-56.8c5.4-9.5,37.9-70.3,41-74.8c3-4.5,50.2,35.2,50.2,35.2s-84.9,150.7-107.7,174.7
			C1858.7,1366.1,1693.2,1281.4,1693.2,1281.4z"/>
	</g>
	<g>
		<path class="st32" d="M1704.5,1866.7L1704.5,1866.7c-3.3,12.4-6.8,23.6-10.2,32.8c0,0,0,0,0,0l-26.9-160.3
			C1674.2,1754.4,1704.5,1866.7,1704.5,1866.7z"/>
	</g>
	<g>
		<path class="st40" d="M1746.6,1333.2l-77.7-63.5c20.6,11,71.2,34.1,77.5,37C1746.3,1315.5,1746.4,1324.4,1746.6,1333.2z"/>
	</g>
	<g>
		<path class="st18" d="M1730.9,1132.9c-0.2,2.3-0.5,5-0.8,7.9c-0.1,1.7-0.3,3.6-0.5,5.4c-25.8-1.7-45.7-22.2-46.9-23.5
			C1693.2,1131,1730.9,1132.9,1730.9,1132.9z"/>
	</g>
</g>
<g class="st41">
	<polygon class="st42" points="2740.5,542.3 2781.3,542.3 2768.8,516.4 2728,516.4 	"/>
	<polygon class="st42" points="2721.4,542.3 2731.1,542.3 2718.6,516.4 2708.9,516.4 	"/>
	<polygon class="st42" points="2580.3,511.4 2745.6,511.4 2740.1,498.5 2574.9,498.5 	"/>
</g>
<g>
	<g>
		<path class="st42" d="M1692.7,98.3h-62.4c-2.1,0-3.8-1.7-3.8-3.8V81c0-2.1,1.7-3.8,3.8-3.8h62.4c2.1,0,3.8,1.7,3.8,3.8v13.5
			C1696.5,96.6,1694.8,98.3,1692.7,98.3z"/>
	</g>
	<g>
		<path class="st42" d="M1692.7,148.9h-62.4c-2.1,0-3.8-1.7-3.8-3.8v-13.5c0-2.1,1.7-3.8,3.8-3.8h62.4c2.1,0,3.8,1.7,3.8,3.8v13.5
			C1696.5,147.2,1694.8,148.9,1692.7,148.9z"/>
	</g>
	<g>
		<path class="st42" d="M1692.7,199.5h-62.4c-2.1,0-3.8-1.7-3.8-3.8v-13.5c0-2.1,1.7-3.8,3.8-3.8h62.4c2.1,0,3.8,1.7,3.8,3.8v13.5
			C1696.5,197.8,1694.8,199.5,1692.7,199.5z"/>
	</g>
	<g>
		<path class="st42" d="M1741.6,98.3h-12.3c-2.1,0-3.8-1.7-3.8-3.8V81c0-2.1,1.7-3.8,3.8-3.8h12.3c2.1,0,3.8,1.7,3.8,3.8v13.5
			C1745.4,96.6,1743.7,98.3,1741.6,98.3z"/>
	</g>
	<g>
		<path class="st42" d="M1741.6,148.9h-12.3c-2.1,0-3.8-1.7-3.8-3.8v-13.5c0-2.1,1.7-3.8,3.8-3.8h12.3c2.1,0,3.8,1.7,3.8,3.8v13.5
			C1745.4,147.2,1743.7,148.9,1741.6,148.9z"/>
	</g>
	<g>
		<path class="st42" d="M1741.6,199.5h-12.3c-2.1,0-3.8-1.7-3.8-3.8v-13.5c0-2.1,1.7-3.8,3.8-3.8h12.3c2.1,0,3.8,1.7,3.8,3.8v13.5
			C1745.4,197.8,1743.7,199.5,1741.6,199.5z"/>
	</g>
</g>
<g>
	<polygon class="st42" points="1427,1295.2 1500.3,1295.2 1477.9,1248.7 1404.6,1248.7 	"/>
	<polygon class="st42" points="1392.7,1295.2 1410.2,1295.2 1387.8,1248.7 1370.3,1248.7 	"/>
</g>
</svg>
